<svg width="1505" height="229" viewBox="0 0 1505 229" fill="none" xmlns="http://www.w3.org/2000/svg">
<path d="M58.0491 140.397H155.025L167.223 177.297H44.631L58.0491 140.397ZM165.088 224.26L106.537 55.9244L46.7657 224.26H0.107546L82.4455 5.30179H133.068L214.796 224.26H165.088ZM412.155 5.30179V141.007C412.155 158.288 408.597 173.535 401.481 186.75C394.569 199.965 384.404 210.333 370.986 217.856C357.568 225.175 341.303 228.834 322.193 228.834C302.879 228.834 286.513 225.175 273.095 217.856C259.677 210.333 249.41 199.965 242.294 186.75C235.382 173.535 231.926 158.288 231.926 141.007V5.30179H278.279V141.922C278.279 150.867 279.804 158.796 282.854 165.708C285.903 172.621 290.579 178.008 296.881 181.871C303.387 185.53 311.824 187.36 322.193 187.36C332.358 187.36 340.592 185.53 346.894 181.871C353.4 178.008 358.177 172.621 361.227 165.708C364.277 158.796 365.801 150.867 365.801 141.922V5.30179H412.155ZM554.378 224.26H508.025V47.0807H439.105V5.30179H623.603V47.0807H554.378V224.26ZM697.607 224.26H651.254V5.30179H697.607V91.6041H792.448V5.30179H838.801V224.26H792.448V131.553H697.607V224.26ZM982.952 228.834C967.095 228.834 952.355 225.988 938.734 220.295C925.316 214.603 913.524 206.674 903.359 196.509C893.194 186.14 885.265 174.044 879.572 160.219C873.88 146.191 871.034 130.943 871.034 114.476C871.034 98.0082 873.88 82.8621 879.572 69.0375C885.265 55.2128 893.194 43.2179 903.359 33.0527C913.524 22.8875 925.316 14.9587 938.734 9.26621C952.355 3.57371 967.095 0.727464 982.952 0.727464C998.81 0.727464 1013.55 3.57371 1027.17 9.26621C1040.79 14.9587 1052.69 22.8875 1062.85 33.0527C1073.22 43.2179 1081.25 55.2128 1086.94 69.0375C1092.63 82.8621 1095.48 98.0082 1095.48 114.476C1095.48 130.943 1092.63 146.191 1086.94 160.219C1081.25 174.044 1073.22 186.14 1062.85 196.509C1052.69 206.674 1040.79 214.603 1027.17 220.295C1013.55 225.988 998.81 228.834 982.952 228.834ZM982.952 187.36C992.914 187.36 1001.86 185.53 1009.79 181.871C1017.92 178.008 1024.73 172.722 1030.22 166.013C1035.91 159.304 1040.18 151.579 1043.03 142.837C1046.08 133.891 1047.6 124.438 1047.6 114.476C1047.6 104.514 1046.08 95.162 1043.03 86.4199C1040.18 77.6779 1035.91 70.054 1030.22 63.5483C1024.73 56.8392 1017.92 51.655 1009.79 47.9955C1001.86 44.1328 992.914 42.2014 982.952 42.2014C972.99 42.2014 964.045 44.1328 956.116 47.9955C948.187 51.655 941.377 56.8392 935.684 63.5483C930.195 70.054 925.926 77.6779 922.876 86.4199C920.03 95.162 918.607 104.514 918.607 114.476C918.607 124.438 920.03 133.891 922.876 142.837C925.926 151.579 930.195 159.304 935.684 166.013C941.377 172.722 948.187 178.008 956.116 181.871C964.045 185.53 972.99 187.36 982.952 187.36ZM1173.8 224.26H1127.45V5.30179H1213.14C1240.79 5.30179 1262.24 11.5026 1277.49 23.9041C1292.73 36.1023 1300.36 53.5864 1300.36 76.3564C1300.36 90.9942 1295.99 104.006 1287.25 115.391C1278.71 126.572 1266.61 134.704 1250.96 139.787L1307.37 224.26H1252.18L1202.77 146.801H1173.8V224.26ZM1173.8 43.7262V108.682H1211.01C1225.03 108.682 1235.71 106.039 1243.03 100.753C1250.35 95.2636 1254 87.1315 1254 76.3564C1254 65.378 1250.35 57.2458 1243.03 51.96C1235.71 46.4708 1225.03 43.7262 1211.01 43.7262H1173.8ZM1504.24 156.255C1504.24 170.079 1500.68 182.379 1493.57 193.154C1486.45 203.726 1476.29 212.061 1463.07 218.161C1450.06 224.26 1434.31 227.309 1415.81 227.309C1397.51 227.309 1381.55 224.26 1367.93 218.161C1354.51 211.858 1343.94 203.014 1336.21 191.629C1328.49 180.244 1324.01 166.826 1322.79 151.375H1369.76C1370.37 163.574 1374.43 173.231 1381.96 180.346C1389.68 187.462 1400.66 191.02 1414.89 191.02C1422.82 191.02 1429.73 189.901 1435.63 187.665C1441.73 185.429 1446.5 182.176 1449.96 177.906C1453.42 173.637 1455.14 168.656 1455.14 162.964C1455.14 156.051 1452.6 150.562 1447.52 146.496C1442.44 142.227 1435.22 139.177 1425.87 137.347L1389.88 130.333C1381.55 128.91 1373.82 126.572 1366.71 123.319C1359.59 120.067 1353.39 116.001 1348.11 111.121C1342.82 106.242 1338.65 100.346 1335.6 93.4339C1332.55 86.5216 1331.03 78.5927 1331.03 69.6474C1331.03 56.6359 1334.48 45.0476 1341.4 34.8825C1348.51 24.7173 1358.17 16.7884 1370.37 11.0959C1382.77 5.40344 1396.9 2.55719 1412.76 2.55719C1429.22 2.55719 1443.86 5.60675 1456.67 11.7059C1469.48 17.805 1479.85 26.4454 1487.77 37.6271C1495.7 48.6054 1500.07 61.7185 1500.89 76.9663H1453.92C1453.52 69.2408 1451.49 62.5317 1447.83 56.8392C1444.37 50.9434 1439.69 46.4708 1433.8 43.4212C1427.9 40.1683 1421.09 38.5419 1413.37 38.5419C1405.84 38.5419 1399.44 39.8634 1394.15 42.5063C1389.07 44.946 1385.11 48.3005 1382.26 52.5699C1379.41 56.6359 1377.99 61.3119 1377.99 66.5978C1377.99 71.4771 1379.31 75.5432 1381.96 78.796C1384.8 82.0489 1388.46 84.6918 1392.93 86.7249C1397.41 88.5546 1402.29 89.9777 1407.57 90.9942L1445.08 98.6181C1464.39 102.481 1479.03 109.088 1488.99 118.44C1499.16 127.589 1504.24 140.194 1504.24 156.255Z" fill="black"/>
</svg>
