<svg width="1478" height="184" viewBox="0 0 1478 184" fill="none" xmlns="http://www.w3.org/2000/svg">
<path d="M38.0918 179.554H0.2118V0.620426H38.0918V179.554ZM190.317 179.554H74.683V0.620426H112.563V145.412H190.317V179.554ZM331.958 179.554H216.324V0.620426H254.204V145.412H331.958V179.554ZM498.666 0.620426V111.519C498.666 125.641 495.759 138.102 489.944 148.901C484.295 159.7 475.988 168.173 465.023 174.32C454.058 180.301 440.766 183.292 425.149 183.292C409.366 183.292 395.992 180.301 385.026 174.32C374.061 168.173 365.671 159.7 359.856 148.901C354.207 138.102 351.383 125.641 351.383 111.519V0.620426H389.263V112.267C389.263 119.577 390.509 126.057 393.001 131.705C395.493 137.354 399.314 141.757 404.465 144.913C409.781 147.904 416.676 149.399 425.149 149.399C433.456 149.399 440.185 147.904 445.335 144.913C450.652 141.757 454.556 137.354 457.048 131.705C459.54 126.057 460.786 119.577 460.786 112.267V0.620426H498.666ZM616.138 179.554L569.287 60.6802V179.554H534.895V0.620426H580.252L632.088 133.201L684.173 0.620426H729.529V179.554H695.138V59.6834L647.788 179.554H616.138ZM803.977 179.554H766.097V0.620426H803.977V179.554ZM957.199 179.554L875.208 54.6992V179.554H840.568V0.620426H881.439L959.442 119.245V0.620426H994.331V179.554H957.199ZM1063.27 111.021H1142.52L1152.49 141.175H1052.31L1063.27 111.021ZM1150.75 179.554L1102.9 41.9894L1054.05 179.554H1015.92L1083.21 0.620426H1124.58L1191.37 179.554H1150.75ZM1277.83 179.554H1239.95V34.7623H1183.63V0.620426H1334.4V34.7623H1277.83V179.554ZM1477.37 146.658V179.554H1357V0.620426H1475.62V33.5163H1394.88V71.1471H1468.15V103.794H1394.88V146.658H1477.37Z" fill="black"/>
</svg>
