<svg width="1488" height="211" viewBox="0 0 1488 211" fill="none" xmlns="http://www.w3.org/2000/svg">
<path d="M91.9578 206.479L39.1672 72.5369V206.479H0.416716V4.86384H51.5225L109.929 154.25L168.616 4.86384H219.722V206.479H180.972V71.4137L127.62 206.479H91.9578ZM297.149 129.259H386.443L397.675 163.236H284.793L297.149 129.259ZM395.71 206.479L341.796 51.4768L286.759 206.479H243.796L319.613 4.86384H366.226L441.48 206.479H395.71ZM546.353 210.691C531.751 210.691 518.086 208.164 505.356 203.109C492.813 197.868 481.769 190.567 472.221 181.207C462.861 171.847 455.561 160.708 450.319 147.791C445.077 134.687 442.457 120.367 442.457 104.829C442.457 89.8529 444.984 76.0937 450.038 63.5512C455.093 51.0088 462.206 39.964 471.379 30.4167C480.552 20.8695 491.316 13.5687 503.671 8.51425C516.214 3.27264 529.879 0.651831 544.668 0.651831C561.703 0.651831 576.96 3.83424 590.439 10.1991C604.104 16.3767 615.523 24.9879 624.696 36.0327C634.056 47.0776 640.983 59.9944 645.476 74.7833H595.212C593.153 67.8568 589.783 61.7728 585.103 56.5312C580.423 51.1024 574.62 46.7968 567.694 43.6144C560.767 40.432 552.718 38.8408 543.545 38.8408C532.687 38.8408 522.859 41.4616 514.061 46.7032C505.45 51.7576 498.617 59.3392 493.562 69.448C488.695 79.3697 486.261 91.5377 486.261 105.952C486.261 118.869 488.601 130.475 493.281 140.771C497.961 151.068 504.888 159.304 514.061 165.482C523.421 171.472 534.84 174.468 548.318 174.468C558.24 174.468 566.851 172.689 574.152 169.132C581.64 165.388 587.724 160.334 592.404 153.969C597.271 147.417 600.641 140.023 602.513 131.786H544.106V97.8089H648.003C648.752 114.283 646.88 129.446 642.387 143.299C637.894 156.964 631.155 168.852 622.169 178.96C613.371 189.069 602.513 196.932 589.596 202.548C576.867 207.976 562.452 210.691 546.353 210.691ZM703.268 129.259H792.563L803.795 163.236H690.913L703.268 129.259ZM801.829 206.479L747.915 51.4768L692.878 206.479H649.916L725.732 4.86384H772.345L847.6 206.479H801.829ZM1021.83 206.479H862.894V172.783L965.948 41.6488H863.175V4.86384H1018.46V39.1216L914.843 169.694H1021.83V206.479ZM1095.55 206.479H1052.87V4.86384H1095.55V206.479ZM1268.2 206.479L1175.81 65.7976V206.479H1136.78V4.86384H1182.83L1270.72 138.525V4.86384H1310.04V206.479H1268.2ZM1487.12 169.413V206.479H1351.5V4.86384H1485.16V41.9296H1394.18V84.3305H1476.73V121.115H1394.18V169.413H1487.12Z" fill="black"/>
</svg>
