<svg width="261" height="22" viewBox="0 0 261 22" fill="none" xmlns="http://www.w3.org/2000/svg">
<path d="M13.2 21H0.00264883V0.57828H4.32591V17.1034H13.2V21ZM32.2265 0.57828V13.2352C32.2265 14.8469 31.8946 16.2691 31.231 17.5016C30.5863 18.7341 29.6382 19.7011 28.3867 20.4027C27.1352 21.0853 25.6183 21.4266 23.8359 21.4266C22.0346 21.4266 20.5081 21.0853 19.2567 20.4027C18.0052 19.7011 17.0476 18.7341 16.384 17.5016C15.7393 16.2691 15.4169 14.8469 15.4169 13.2352V0.57828H19.7402V13.3205C19.7402 14.1548 19.8824 14.8943 20.1668 15.539C20.4513 16.1837 20.8874 16.6862 21.4752 17.0465C22.082 17.3878 22.8689 17.5585 23.8359 17.5585C24.784 17.5585 25.5519 17.3878 26.1398 17.0465C26.7465 16.6862 27.1921 16.1837 27.4766 15.539C27.761 14.8943 27.9032 14.1548 27.9032 13.3205V0.57828H32.2265ZM45.6335 21L40.2863 7.43292V21H36.3613V0.57828H41.5378L47.4539 15.7097L53.3983 0.57828H58.5749V21H54.6498V7.31915L49.2457 21H45.6335ZM71.9922 21.4266C70.5132 21.4266 69.1385 21.1612 67.868 20.6302C66.6165 20.0993 65.5168 19.3598 64.5687 18.4117C63.6206 17.4447 62.8811 16.3165 62.3502 15.0271C61.8192 13.7187 61.5538 12.2966 61.5538 10.7607C61.5538 9.2248 61.8192 7.81216 62.3502 6.52276C62.8811 5.23337 63.6206 4.11463 64.5687 3.16655C65.5168 2.21846 66.6165 1.47896 67.868 0.948033C69.1385 0.417106 70.5132 0.151643 71.9922 0.151643C73.4712 0.151643 74.8459 0.417106 76.1163 0.948033C77.3868 1.47896 78.496 2.21846 79.4441 3.16655C80.4112 4.11463 81.1602 5.23337 81.6911 6.52276C82.222 7.81216 82.4875 9.2248 82.4875 10.7607C82.4875 12.2966 82.222 13.7187 81.6911 15.0271C81.1602 16.3165 80.4112 17.4447 79.4441 18.4117C78.496 19.3598 77.3868 20.0993 76.1163 20.6302C74.8459 21.1612 73.4712 21.4266 71.9922 21.4266ZM71.9922 17.5585C72.9213 17.5585 73.7556 17.3878 74.4951 17.0465C75.2536 16.6862 75.8888 16.1932 76.4008 15.5675C76.9317 14.9417 77.3299 14.2212 77.5954 13.4059C77.8798 12.5715 78.022 11.6898 78.022 10.7607C78.022 9.83158 77.8798 8.95934 77.5954 8.14399C77.3299 7.32864 76.9317 6.61757 76.4008 6.0108C75.8888 5.38506 75.2536 4.90154 74.4951 4.56023C73.7556 4.19996 72.9213 4.01982 71.9922 4.01982C71.0631 4.01982 70.2287 4.19996 69.4892 4.56023C68.7497 4.90154 68.1145 5.38506 67.5836 6.0108C67.0716 6.61757 66.6734 7.32864 66.389 8.14399C66.1235 8.95934 65.9908 9.83158 65.9908 10.7607C65.9908 11.6898 66.1235 12.5715 66.389 13.4059C66.6734 14.2212 67.0716 14.9417 67.5836 15.5675C68.1145 16.1932 68.7497 16.6862 69.4892 17.0465C70.2287 17.3878 71.0631 17.5585 71.9922 17.5585ZM101.141 14.6573C101.141 15.9467 100.809 17.0939 100.145 18.0989C99.4817 19.0849 98.5336 19.8623 97.3011 20.4311C96.0876 21 94.618 21.2844 92.8925 21.2844C91.186 21.2844 89.6975 21 88.4271 20.4311C87.1756 19.8433 86.1896 19.0185 85.469 17.9567C84.7485 16.8948 84.3313 15.6433 84.2176 14.2022H88.5977C88.6546 15.3399 89.0338 16.2406 89.7354 16.9043C90.456 17.5679 91.4799 17.8998 92.8072 17.8998C93.5467 17.8998 94.1914 17.7955 94.7413 17.5869C95.3101 17.3783 95.7557 17.0749 96.0781 16.6767C96.4004 16.2785 96.5616 15.814 96.5616 15.2831C96.5616 14.6384 96.3246 14.1264 95.8506 13.7472C95.3765 13.349 94.7034 13.0645 93.8311 12.8939L90.4749 12.2397C89.6975 12.107 88.977 11.8889 88.3133 11.5855C87.6496 11.2821 87.0713 10.9029 86.5783 10.4478C86.0853 9.99275 85.6966 9.44286 85.4122 8.79816C85.1277 8.15347 84.9855 7.41396 84.9855 6.57965C84.9855 5.3661 85.3079 4.28529 85.9526 3.3372C86.6162 2.38912 87.5169 1.64962 88.6546 1.11869C89.8113 0.587761 91.1291 0.322297 92.6081 0.322297C94.144 0.322297 95.5092 0.606723 96.7038 1.17557C97.8984 1.74442 98.8655 2.55029 99.605 3.59319C100.344 4.61712 100.752 5.84014 100.828 7.26227H96.4478C96.4099 6.54173 96.2203 5.91599 95.879 5.38506C95.5567 4.83518 95.1205 4.41802 94.5706 4.13359C94.0208 3.83021 93.3855 3.67851 92.665 3.67851C91.9634 3.67851 91.3661 3.80176 90.8731 4.04827C90.3991 4.27581 90.0293 4.58867 89.7639 4.98687C89.4984 5.3661 89.3657 5.80222 89.3657 6.29522C89.3657 6.7503 89.4889 7.12954 89.7354 7.43292C90.0009 7.73631 90.3422 7.98281 90.7593 8.17243C91.1765 8.34308 91.6316 8.47582 92.1246 8.57063L95.623 9.28169C97.4244 9.64196 98.7896 10.2582 99.7187 11.1305C100.667 11.9837 101.141 13.1593 101.141 14.6573ZM119.545 21L114.198 7.43292V21H110.273V0.57828H115.449L121.365 15.7097L127.31 0.57828H132.487V21H128.561V7.31915L123.157 21H119.545ZM140.329 13.1783H149.374L150.511 16.6199H139.078L140.329 13.1783ZM150.312 21L144.851 5.29974L139.277 21H134.925L142.604 0.57828H147.326L154.949 21H150.312ZM165.571 21.4266C164.092 21.4266 162.708 21.1707 161.419 20.6587C160.148 20.1278 159.029 19.3883 158.062 18.4402C157.114 17.4921 156.375 16.3639 155.844 15.0555C155.313 13.7282 155.047 12.2776 155.047 10.7038C155.047 9.18688 155.303 7.7932 155.815 6.52276C156.327 5.25233 157.048 4.13359 157.977 3.16655C158.906 2.1995 159.996 1.46 161.248 0.948033C162.518 0.417106 163.903 0.151643 165.4 0.151643C167.126 0.151643 168.671 0.473991 170.037 1.11869C171.421 1.74442 172.577 2.61666 173.507 3.7354C174.455 4.85414 175.156 6.16249 175.611 7.66046H170.52C170.312 6.95888 169.97 6.34263 169.496 5.8117C169.022 5.26181 168.434 4.82569 167.733 4.50335C167.031 4.181 166.216 4.01982 165.287 4.01982C164.187 4.01982 163.191 4.28529 162.3 4.81621C161.428 5.32818 160.736 6.09613 160.224 7.12006C159.731 8.12503 159.484 9.35753 159.484 10.8176C159.484 12.1259 159.721 13.3016 160.196 14.3445C160.67 15.3873 161.371 16.2217 162.3 16.8474C163.248 17.4542 164.405 17.7576 165.77 17.7576C166.775 17.7576 167.647 17.5774 168.387 17.2171C169.145 16.8379 169.762 16.3259 170.236 15.6813C170.729 15.0176 171.07 14.2686 171.26 13.4343H165.344V9.99275H175.867C175.943 11.6614 175.754 13.1973 175.298 14.6004C174.843 15.9846 174.161 17.1887 173.251 18.2126C172.359 19.2366 171.26 20.033 169.951 20.6018C168.662 21.1517 167.202 21.4266 165.571 21.4266ZM181.465 13.1783H190.51L191.648 16.6199H180.214L181.465 13.1783ZM191.448 21L185.988 5.29974L180.413 21H176.061L183.741 0.57828H188.462L196.085 21H191.448ZM213.732 21H197.634V17.5869L208.072 4.30425H197.662V0.57828H213.391V4.04827L202.896 17.274H213.732V21ZM221.2 21H216.877V0.57828H221.2V21ZM238.687 21L229.33 6.7503V21H225.376V0.57828H230.041L238.943 14.1169V0.57828H242.925V21H238.687ZM260.862 17.2456V21H247.125V0.57828H260.663V4.33269H251.448V8.62751H259.81V12.3535H251.448V17.2456H260.862Z" fill="black"/>
</svg>
