<svg width="262" height="22" viewBox="0 0 262 22" fill="none" xmlns="http://www.w3.org/2000/svg">
<path d="M13.8519 21H0.654565V0.57828H4.97783V17.1034H13.8519V21ZM32.8784 0.57828V13.2352C32.8784 14.8469 32.5465 16.2691 31.8829 17.5016C31.2382 18.7341 30.2901 19.7011 29.0386 20.4027C27.7872 21.0853 26.2702 21.4266 24.4878 21.4266C22.6865 21.4266 21.1601 21.0853 19.9086 20.4027C18.6571 19.7011 17.6996 18.7341 17.0359 17.5016C16.3912 16.2691 16.0688 14.8469 16.0688 13.2352V0.57828H20.3921V13.3205C20.3921 14.1548 20.5343 14.8943 20.8187 15.539C21.1032 16.1837 21.5393 16.6862 22.1271 17.0465C22.7339 17.3878 23.5208 17.5585 24.4878 17.5585C25.4359 17.5585 26.2039 17.3878 26.7917 17.0465C27.3984 16.6862 27.844 16.1837 28.1285 15.539C28.4129 14.8943 28.5551 14.1548 28.5551 13.3205V0.57828H32.8784ZM46.2855 21L40.9383 7.43292V21H37.0132V0.57828H42.1897L48.1058 15.7097L54.0503 0.57828H59.2268V21H55.3017V7.31915L49.8977 21H46.2855ZM72.6441 21.4266C71.1651 21.4266 69.7904 21.1612 68.5199 20.6302C67.2685 20.0993 66.1687 19.3598 65.2206 18.4117C64.2725 17.4447 63.533 16.3165 63.0021 15.0271C62.4712 13.7187 62.2057 12.2966 62.2057 10.7607C62.2057 9.2248 62.4712 7.81216 63.0021 6.52276C63.533 5.23337 64.2725 4.11463 65.2206 3.16655C66.1687 2.21846 67.2685 1.47896 68.5199 0.948033C69.7904 0.417106 71.1651 0.151643 72.6441 0.151643C74.1231 0.151643 75.4978 0.417106 76.7683 0.948033C78.0387 1.47896 79.148 2.21846 80.096 3.16655C81.0631 4.11463 81.8121 5.23337 82.343 6.52276C82.8739 7.81216 83.1394 9.2248 83.1394 10.7607C83.1394 12.2966 82.8739 13.7187 82.343 15.0271C81.8121 16.3165 81.0631 17.4447 80.096 18.4117C79.148 19.3598 78.0387 20.0993 76.7683 20.6302C75.4978 21.1612 74.1231 21.4266 72.6441 21.4266ZM72.6441 17.5585C73.5732 17.5585 74.4075 17.3878 75.147 17.0465C75.9055 16.6862 76.5407 16.1932 77.0527 15.5675C77.5836 14.9417 77.9818 14.2212 78.2473 13.4059C78.5317 12.5715 78.6739 11.6898 78.6739 10.7607C78.6739 9.83158 78.5317 8.95934 78.2473 8.14399C77.9818 7.32864 77.5836 6.61757 77.0527 6.0108C76.5407 5.38506 75.9055 4.90154 75.147 4.56023C74.4075 4.19996 73.5732 4.01982 72.6441 4.01982C71.715 4.01982 70.8807 4.19996 70.1412 4.56023C69.4017 4.90154 68.7664 5.38506 68.2355 6.0108C67.7235 6.61757 67.3254 7.32864 67.0409 8.14399C66.7755 8.95934 66.6427 9.83158 66.6427 10.7607C66.6427 11.6898 66.7755 12.5715 67.0409 13.4059C67.3254 14.2212 67.7235 14.9417 68.2355 15.5675C68.7664 16.1932 69.4017 16.6862 70.1412 17.0465C70.8807 17.3878 71.715 17.5585 72.6441 17.5585ZM101.793 14.6573C101.793 15.9467 101.461 17.0939 100.797 18.0989C100.134 19.0849 99.1855 19.8623 97.953 20.4311C96.7395 21 95.27 21.2844 93.5445 21.2844C91.8379 21.2844 90.3494 21 89.079 20.4311C87.8275 19.8433 86.8415 19.0185 86.121 17.9567C85.4004 16.8948 84.9833 15.6433 84.8695 14.2022H89.2496C89.3065 15.3399 89.6858 16.2406 90.3873 16.9043C91.1079 17.5679 92.1318 17.8998 93.4591 17.8998C94.1986 17.8998 94.8433 17.7955 95.3932 17.5869C95.9621 17.3783 96.4077 17.0749 96.73 16.6767C97.0524 16.2785 97.2135 15.814 97.2135 15.2831C97.2135 14.6384 96.9765 14.1264 96.5025 13.7472C96.0284 13.349 95.3553 13.0645 94.4831 12.8939L91.1268 12.2397C90.3494 12.107 89.6289 11.8889 88.9652 11.5855C88.3016 11.2821 87.7232 10.9029 87.2302 10.4478C86.7372 9.99275 86.3485 9.44286 86.0641 8.79816C85.7796 8.15347 85.6374 7.41396 85.6374 6.57965C85.6374 5.3661 85.9598 4.28529 86.6045 3.3372C87.2681 2.38912 88.1688 1.64962 89.3065 1.11869C90.4632 0.587761 91.781 0.322297 93.26 0.322297C94.7959 0.322297 96.1612 0.606723 97.3557 1.17557C98.5503 1.74442 99.5174 2.55029 100.257 3.59319C100.996 4.61712 101.404 5.84014 101.48 7.26227H97.0998C97.0618 6.54173 96.8722 5.91599 96.5309 5.38506C96.2086 4.83518 95.7724 4.41802 95.2226 4.13359C94.6727 3.83021 94.0375 3.67851 93.3169 3.67851C92.6153 3.67851 92.018 3.80176 91.525 4.04827C91.051 4.27581 90.6812 4.58867 90.4158 4.98687C90.1503 5.3661 90.0176 5.80222 90.0176 6.29522C90.0176 6.7503 90.1408 7.12954 90.3873 7.43292C90.6528 7.73631 90.9941 7.98281 91.4113 8.17243C91.8284 8.34308 92.2835 8.47582 92.7765 8.57063L96.2749 9.28169C98.0763 9.64196 99.4415 10.2582 100.371 11.1305C101.319 11.9837 101.793 13.1593 101.793 14.6573ZM120.197 21L114.85 7.43292V21H110.925V0.57828H116.101L122.017 15.7097L127.962 0.57828H133.138V21H129.213V7.31915L123.809 21H120.197ZM140.981 13.1783H150.026L151.163 16.6199H139.73L140.981 13.1783ZM150.964 21L145.503 5.29974L139.929 21H135.577L143.256 0.57828H147.978L155.6 21H150.964ZM166.223 21.4266C164.744 21.4266 163.36 21.1707 162.07 20.6587C160.8 20.1278 159.681 19.3883 158.714 18.4402C157.766 17.4921 157.027 16.3639 156.496 15.0555C155.965 13.7282 155.699 12.2776 155.699 10.7038C155.699 9.18688 155.955 7.7932 156.467 6.52276C156.979 5.25233 157.7 4.13359 158.629 3.16655C159.558 2.1995 160.648 1.46 161.9 0.948033C163.17 0.417106 164.554 0.151643 166.052 0.151643C167.778 0.151643 169.323 0.473991 170.689 1.11869C172.073 1.74442 173.229 2.61666 174.159 3.7354C175.107 4.85414 175.808 6.16249 176.263 7.66046H171.172C170.963 6.95888 170.622 6.34263 170.148 5.8117C169.674 5.26181 169.086 4.82569 168.385 4.50335C167.683 4.181 166.868 4.01982 165.939 4.01982C164.839 4.01982 163.843 4.28529 162.952 4.81621C162.08 5.32818 161.388 6.09613 160.876 7.12006C160.383 8.12503 160.136 9.35753 160.136 10.8176C160.136 12.1259 160.373 13.3016 160.847 14.3445C161.321 15.3873 162.023 16.2217 162.952 16.8474C163.9 17.4542 165.057 17.7576 166.422 17.7576C167.427 17.7576 168.299 17.5774 169.039 17.2171C169.797 16.8379 170.414 16.3259 170.888 15.6813C171.381 15.0176 171.722 14.2686 171.912 13.4343H165.996V9.99275H176.519C176.595 11.6614 176.405 13.1973 175.95 14.6004C175.495 15.9846 174.813 17.1887 173.903 18.2126C173.011 19.2366 171.912 20.033 170.603 20.6018C169.314 21.1517 167.854 21.4266 166.223 21.4266ZM182.117 13.1783H191.162L192.299 16.6199H180.866L182.117 13.1783ZM192.1 21L186.639 5.29974L181.065 21H176.713L184.392 0.57828H189.114L196.737 21H192.1ZM214.384 21H198.286V17.5869L208.724 4.30425H198.314V0.57828H214.043V4.04827L203.548 17.274H214.384V21ZM221.852 21H217.529V0.57828H221.852V21ZM239.339 21L229.982 6.7503V21H226.028V0.57828H230.693L239.595 14.1169V0.57828H243.577V21H239.339ZM261.514 17.2456V21H247.777V0.57828H261.315V4.33269H252.1V8.62751H260.462V12.3535H252.1V17.2456H261.514Z" fill="white"/>
</svg>
