<svg width="1504" height="177" viewBox="0 0 1504 177" fill="none" xmlns="http://www.w3.org/2000/svg">
<path d="M140.031 120.309C140.031 130.927 137.298 140.374 131.833 148.65C126.368 156.77 118.56 163.172 108.41 167.857C98.4167 172.541 86.315 174.884 72.1053 174.884C58.0518 174.884 45.794 172.541 35.332 167.857C25.026 163.016 16.9062 156.224 10.9725 147.479C5.0388 138.735 1.6035 128.429 0.666594 116.562H36.7373C37.2058 125.931 40.3288 133.348 46.1063 138.813C52.04 144.278 60.4722 147.011 71.4027 147.011C77.4925 147.011 82.8016 146.152 87.33 144.434C92.0145 142.717 95.684 140.218 98.3386 136.939C100.993 133.66 102.32 129.834 102.32 125.462C102.32 120.153 100.369 115.937 96.4648 112.814C92.561 109.535 87.0177 107.193 79.8348 105.787L52.1962 100.4C45.794 99.307 39.8603 97.5112 34.3951 95.0128C28.9298 92.5144 24.1672 89.3914 20.1073 85.6438C16.0474 81.8962 12.8463 77.3679 10.5041 72.0587C8.16181 66.7496 6.99068 60.6598 6.99068 53.7892C6.99068 43.7955 9.64524 34.895 14.9543 27.0875C20.4196 19.2799 27.8367 13.1901 37.2058 8.81787C46.7309 4.44567 57.5834 2.25956 69.7631 2.25956C82.4113 2.25956 93.6541 4.60182 103.492 9.28633C113.329 13.9708 121.293 20.6072 127.383 29.1955C133.472 37.6276 136.83 47.6993 137.454 59.4106H101.384C101.071 53.4769 99.5097 48.3239 96.699 43.9517C94.0445 39.4233 90.453 35.988 85.9246 33.6458C81.3963 31.1474 76.1653 29.8982 70.2315 29.8982C64.454 29.8982 59.5352 30.9131 55.4753 32.9431C51.5716 34.8169 48.5267 37.3934 46.3405 40.6725C44.1544 43.7955 43.0614 47.387 43.0614 51.4469C43.0614 55.1945 44.0764 58.3175 46.1063 60.8159C48.2924 63.3143 51.1031 65.3443 54.5384 66.9058C57.9737 68.3111 61.7214 69.4042 65.7813 70.1849L94.591 76.0406C109.425 79.0074 120.668 84.0823 128.319 91.2652C136.127 98.292 140.031 107.973 140.031 120.309ZM236.438 172.541H200.836V36.4565H147.901V4.36759H289.607V36.4565H236.438V172.541ZM390.013 109.301V172.541H354.411V109.301L294.918 4.36759H333.331L373.383 76.7433L414.138 4.36759H449.975L390.013 109.301ZM577.353 172.541H468.673V4.36759H504.275V140.453H577.353V172.541ZM714.928 141.624V172.541H601.797V4.36759H713.288V35.2854H637.399V70.6534H706.262V101.337H637.399V141.624H714.928ZM868.245 176.055C856.065 176.055 844.666 173.947 834.048 169.731C823.586 165.359 814.373 159.269 806.409 151.461C798.602 143.654 792.512 134.363 788.14 123.588C783.767 112.658 781.581 100.712 781.581 87.7518C781.581 75.2598 783.689 63.7828 787.905 53.3207C792.122 42.8586 798.055 33.6458 805.707 25.6821C813.358 17.7184 822.337 11.6286 832.643 7.41252C843.105 3.04032 854.504 0.854213 866.839 0.854213C881.049 0.854213 893.775 3.50877 905.018 8.81787C916.417 13.9708 925.942 21.1538 933.594 30.3666C941.401 39.5795 947.179 50.3539 950.926 62.6897H909C907.282 56.9122 904.472 51.8373 900.568 47.4651C896.664 42.9367 891.823 39.3453 886.046 36.6907C880.268 34.0362 873.554 32.7089 865.903 32.7089C856.846 32.7089 848.648 34.895 841.309 39.2672C834.126 43.4832 828.426 49.8073 824.21 58.2394C820.151 66.5154 818.121 76.6652 818.121 88.6887C818.121 99.4631 820.072 109.144 823.976 117.733C827.88 126.321 833.658 133.192 841.309 138.345C849.116 143.341 858.642 145.84 869.884 145.84C878.16 145.84 885.343 144.356 891.433 141.389C897.679 138.266 902.754 134.05 906.658 128.741C910.718 123.276 913.528 117.108 915.09 110.237H866.371V81.8962H953.034C953.659 95.6374 952.097 108.286 948.35 119.841C944.602 131.24 938.981 141.155 931.486 149.587C924.147 158.019 915.09 164.578 904.316 169.262C893.697 173.791 881.674 176.055 868.245 176.055ZM1115.8 4.36759V108.598C1115.8 121.871 1113.06 133.582 1107.6 143.732C1102.29 153.881 1094.48 161.845 1084.18 167.623C1073.87 173.244 1061.38 176.055 1046.7 176.055C1031.87 176.055 1019.3 173.244 1008.99 167.623C998.685 161.845 990.799 153.881 985.334 143.732C980.025 133.582 977.37 121.871 977.37 108.598V4.36759H1012.97V109.301C1012.97 116.171 1014.14 122.261 1016.49 127.57C1018.83 132.879 1022.42 137.017 1027.26 139.984C1032.26 142.795 1038.74 144.2 1046.7 144.2C1054.51 144.2 1060.83 142.795 1065.67 139.984C1070.67 137.017 1074.34 132.879 1076.68 127.57C1079.02 122.261 1080.19 116.171 1080.19 109.301V4.36759H1115.8ZM1185.45 172.541H1149.85V4.36759H1185.45V172.541ZM1279.57 172.541H1219.84V4.36759H1279.57C1297.37 4.36759 1312.67 7.88097 1325.48 14.9077C1338.28 21.9345 1348.12 31.6939 1354.99 44.1859C1361.86 56.6779 1365.29 71.1218 1365.29 87.5176C1365.29 103.757 1361.78 118.357 1354.75 131.318C1347.73 144.122 1337.73 154.194 1324.77 161.533C1311.97 168.872 1296.9 172.541 1279.57 172.541ZM1255.44 35.0511V141.858H1277.69C1288.94 141.858 1298.31 139.75 1305.8 135.534C1313.45 131.318 1319.15 125.15 1322.9 117.03C1326.8 108.91 1328.76 99.0727 1328.76 87.5176C1328.76 76.2748 1326.8 66.7496 1322.9 58.9421C1319.15 51.1346 1313.45 45.2009 1305.8 41.141C1298.31 37.0811 1288.94 35.0511 1277.69 35.0511H1255.44ZM1503.15 141.624V172.541H1390.02V4.36759H1501.51V35.2854H1425.62V70.6534H1494.48V101.337H1425.62V141.624H1503.15Z" fill="black"/>
</svg>
