<svg width="1493" height="206" viewBox="0 0 1493 206" fill="none" xmlns="http://www.w3.org/2000/svg">
<path d="M127.655 201.659H0.386973V4.7224H42.0784V164.082H127.655V201.659ZM197.971 201.659H156.28V4.7224H197.971V201.659ZM325.467 205.774C311.752 205.774 298.861 203.214 286.792 198.094C274.724 192.791 264.21 185.477 255.25 176.151C246.29 166.642 239.25 155.671 234.13 143.237C229.193 130.802 226.724 117.362 226.724 102.917C226.724 88.4709 229.193 75.1224 234.13 62.8709C239.25 50.4367 246.29 39.5567 255.25 30.231C264.21 20.9053 274.724 13.6824 286.792 8.5624C298.861 3.25955 311.752 0.608125 325.467 0.608125C342.838 0.608125 358.564 4.17384 372.644 11.3053C386.907 18.4367 398.61 28.4024 407.752 41.2024C416.895 54.0024 422.564 68.8138 424.758 85.6366H380.598C379.135 76.1281 375.752 67.8081 370.45 60.6767C365.33 53.5452 358.93 47.9681 351.25 43.9452C343.752 39.9224 335.341 37.911 326.015 37.911C317.421 37.911 309.65 39.4652 302.701 42.5738C295.935 45.6824 289.992 50.1624 284.872 56.0138C279.935 61.8652 276.095 68.8138 273.352 76.8595C270.792 84.7224 269.512 93.4081 269.512 102.917C269.512 112.608 270.792 121.477 273.352 129.522C276.095 137.385 279.935 144.242 284.872 150.094C289.992 155.945 295.935 160.517 302.701 163.808C309.65 166.917 317.421 168.471 326.015 168.471C335.341 168.471 343.844 166.459 351.524 162.437C359.204 158.231 365.512 152.562 370.45 145.431C375.57 138.117 378.952 129.797 380.598 120.471H424.758C422.381 137.477 416.621 152.379 407.478 165.179C398.335 177.979 386.724 187.945 372.644 195.077C358.564 202.208 342.838 205.774 325.467 205.774ZM586.349 165.454V201.659H453.869V4.7224H584.429V40.9281H495.56V82.3452H576.2V118.277H495.56V165.454H586.349ZM746.966 201.659L656.727 64.2424V201.659H618.601V4.7224H663.584L749.435 135.282V4.7224H787.835V201.659H746.966ZM979.464 140.494C979.464 152.928 976.264 163.991 969.864 173.682C963.464 183.191 954.321 190.688 942.436 196.174C930.733 201.659 916.561 204.402 899.921 204.402C883.464 204.402 869.11 201.659 856.859 196.174C844.79 190.505 835.281 182.551 828.333 172.311C821.384 162.071 817.361 150.002 816.264 136.105H858.504C859.053 147.077 862.71 155.762 869.476 162.162C876.424 168.562 886.299 171.762 899.099 171.762C906.23 171.762 912.447 170.757 917.75 168.745C923.236 166.734 927.533 163.808 930.641 159.968C933.75 156.128 935.304 151.648 935.304 146.528C935.304 140.311 933.018 135.374 928.447 131.717C923.876 127.877 917.384 125.134 908.973 123.488L876.607 117.179C869.11 115.899 862.161 113.797 855.761 110.871C849.361 107.945 843.784 104.288 839.03 99.8995C834.276 95.5109 830.527 90.2081 827.784 83.9909C825.041 77.7738 823.67 70.6424 823.67 62.5967C823.67 50.8938 826.779 40.471 832.996 31.3281C839.396 22.1853 848.081 15.0538 859.053 9.93383C870.207 4.81383 882.916 2.25383 897.179 2.25383C911.99 2.25383 925.156 4.99669 936.676 10.4824C948.196 15.9681 957.521 23.7395 964.653 33.7967C971.784 43.671 975.716 55.4652 976.447 69.1795H934.207C933.841 62.2309 932.013 56.1967 928.721 51.0767C925.613 45.7738 921.407 41.751 916.104 39.0081C910.801 36.0824 904.676 34.6195 897.727 34.6195C890.961 34.6195 885.201 35.8081 880.447 38.1852C875.876 40.3795 872.31 43.3967 869.75 47.2367C867.19 50.8938 865.91 55.0995 865.91 59.8538C865.91 64.2424 867.099 67.8995 869.476 70.8252C872.036 73.7509 875.327 76.1281 879.35 77.9566C883.373 79.6024 887.761 80.8824 892.516 81.7966L926.253 88.6538C943.624 92.1281 956.79 98.0709 965.75 106.482C974.893 114.711 979.464 126.048 979.464 140.494ZM1051.9 201.659H1010.21V4.7224H1051.9V201.659ZM1220.54 201.659L1130.3 64.2424V201.659H1092.17V4.7224H1137.15L1223.01 135.282V4.7224H1261.41V201.659H1220.54ZM1391.87 205.774C1377.61 205.774 1364.26 203.305 1351.82 198.368C1339.57 193.248 1328.78 186.117 1319.46 176.974C1310.32 167.831 1303.18 156.951 1298.06 144.334C1292.94 131.534 1290.38 117.545 1290.38 102.368C1290.38 87.7395 1292.85 74.2995 1297.79 62.0481C1302.73 49.7967 1309.68 39.0081 1318.64 29.6824C1327.6 20.3567 1338.11 13.2253 1350.18 8.28812C1362.43 3.16812 1375.78 0.608125 1390.22 0.608125C1406.86 0.608125 1421.77 3.71669 1434.93 9.93383C1448.28 15.9681 1459.44 24.3795 1468.4 35.1681C1477.54 45.9567 1484.3 58.5738 1488.69 73.0195H1439.6C1437.58 66.2538 1434.29 60.3109 1429.72 55.1909C1425.15 49.8881 1419.48 45.6824 1412.72 42.5738C1405.95 39.4652 1398.09 37.911 1389.13 37.911C1378.52 37.911 1368.92 40.471 1360.33 45.591C1351.92 50.5281 1345.24 57.9338 1340.3 67.8081C1335.55 77.4995 1333.17 89.3852 1333.17 103.465C1333.17 116.082 1335.46 127.419 1340.03 137.477C1344.6 147.534 1351.37 155.579 1360.33 161.614C1369.47 167.465 1380.62 170.391 1393.79 170.391C1403.48 170.391 1411.89 168.654 1419.02 165.179C1426.34 161.522 1432.28 156.585 1436.85 150.368C1441.61 143.968 1444.9 136.745 1446.73 128.699H1389.68V95.5109H1491.16C1491.89 111.602 1490.06 126.414 1485.68 139.945C1481.29 153.294 1474.7 164.905 1465.93 174.779C1457.33 184.654 1446.73 192.334 1434.11 197.819C1421.68 203.122 1407.6 205.774 1391.87 205.774Z" fill="black"/>
</svg>
