<svg width="1473" height="229" viewBox="0 0 1473 229" fill="none" xmlns="http://www.w3.org/2000/svg">
    <path
        d="M81.6485 152.64H47.1885V224H0.835308V5.04208H81.6485C99.5392 5.04208 114.889 7.78668 127.697 13.2759C140.708 18.7651 150.67 26.8972 157.582 37.6723C164.698 48.4474 168.256 61.8654 168.256 77.9264C168.256 93.7841 164.698 107.304 157.582 118.485C150.67 129.667 140.708 138.206 127.697 144.102C114.889 149.794 99.5392 152.64 81.6485 152.64ZM81.3435 44.0764H47.1885V113.606H81.3435C94.3549 113.606 104.418 110.455 111.534 104.153C118.65 97.6469 122.208 89.0065 122.208 78.2314C122.208 67.4563 118.65 59.1208 111.534 53.225C104.418 47.1259 94.3549 44.0764 81.3435 44.0764ZM298.881 228.574C283.024 228.574 268.284 225.728 254.663 220.036C241.245 214.343 229.453 206.414 219.288 196.249C209.123 185.881 201.194 173.784 195.502 159.959C189.809 145.931 186.963 130.684 186.963 114.216C186.963 97.7485 189.809 82.6024 195.502 68.7778C201.194 54.9531 209.123 42.9582 219.288 32.793C229.453 22.6278 241.245 14.699 254.663 9.00651C268.284 3.31401 283.024 0.467759 298.881 0.467759C314.739 0.467759 329.479 3.31401 343.1 9.00651C356.721 14.699 368.615 22.6278 378.78 32.793C389.148 42.9582 397.179 54.9531 402.871 68.7778C408.564 82.6024 411.41 97.7485 411.41 114.216C411.41 130.684 408.564 145.931 402.871 159.959C397.179 173.784 389.148 185.881 378.78 196.249C368.615 206.414 356.721 214.343 343.1 220.036C329.479 225.728 314.739 228.574 298.881 228.574ZM298.881 187.1C308.843 187.1 317.789 185.271 325.718 181.611C333.85 177.748 340.66 172.463 346.15 165.754C351.842 159.045 356.111 151.319 358.958 142.577C362.007 133.632 363.532 124.178 363.532 114.216C363.532 104.254 362.007 94.9023 358.958 86.1602C356.111 77.4181 351.842 69.7943 346.15 63.2886C340.66 56.5795 333.85 51.3953 325.718 47.7358C317.789 43.8731 308.843 41.9417 298.881 41.9417C288.92 41.9417 279.974 43.8731 272.045 47.7358C264.117 51.3953 257.306 56.5795 251.613 63.2886C246.124 69.7943 241.855 77.4181 238.805 86.1602C235.959 94.9023 234.536 104.254 234.536 114.216C234.536 124.178 235.959 133.632 238.805 142.577C241.855 151.319 246.124 159.045 251.613 165.754C257.306 172.463 264.117 177.748 272.045 181.611C279.974 185.271 288.92 187.1 298.881 187.1ZM521.141 224H443.378V5.04208H521.141C544.318 5.04208 564.242 9.61642 580.913 18.7651C597.584 27.9137 610.392 40.6202 619.337 56.8845C628.282 73.1488 632.755 91.9544 632.755 113.301C632.755 134.445 628.181 153.454 619.032 170.328C609.883 186.999 596.872 200.112 579.998 209.667C563.327 219.222 543.708 224 521.141 224ZM489.731 44.9912V184.051H518.702C533.34 184.051 545.538 181.306 555.296 175.817C565.258 170.328 572.679 162.297 577.558 151.726C582.641 141.154 585.182 128.346 585.182 113.301C585.182 98.6634 582.641 86.2619 577.558 76.0967C572.679 65.9315 565.258 58.206 555.296 52.9201C545.538 47.6342 533.34 44.9912 518.702 44.9912H489.731ZM761.923 228.574C746.675 228.574 732.342 225.728 718.924 220.036C705.506 214.14 693.816 206.008 683.854 195.639C673.892 185.067 666.065 172.869 660.373 159.045C654.883 145.22 652.139 130.277 652.139 114.216C652.139 98.1551 654.883 83.314 660.373 69.6926C666.065 55.868 673.892 43.7714 683.854 33.4029C693.816 23.0345 705.506 15.004 718.924 9.31146C732.342 3.41566 746.675 0.467759 761.923 0.467759C781.237 0.467759 798.721 4.43218 814.375 12.361C830.233 20.2899 843.244 31.3699 853.409 45.6011C863.574 59.8324 869.877 76.3 872.317 95.0039H823.219C821.592 84.4321 817.831 75.1818 811.935 67.253C806.243 59.3241 799.127 53.1234 790.589 48.6507C782.253 44.178 772.901 41.9417 762.533 41.9417C752.977 41.9417 744.337 43.6698 736.611 47.1259C729.089 50.5821 722.482 55.563 716.789 62.0687C711.3 68.5744 707.031 76.3 703.981 85.2453C701.135 93.9874 699.712 103.644 699.712 114.216C699.712 124.991 701.135 134.851 703.981 143.797C707.031 152.539 711.3 160.163 716.789 166.668C722.482 173.174 729.089 178.257 736.611 181.916C744.337 185.372 752.977 187.1 762.533 187.1C772.901 187.1 782.355 184.864 790.893 180.391C799.432 175.715 806.446 169.413 811.935 161.484C817.628 153.352 821.389 144.102 823.219 133.733H872.317C869.674 152.64 863.27 169.21 853.104 183.441C842.939 197.672 830.029 208.752 814.375 216.681C798.721 224.61 781.237 228.574 761.923 228.574ZM932.407 140.137H1029.38L1041.58 177.037H918.989L932.407 140.137ZM1039.45 224L980.895 55.6647L921.124 224H874.466L956.803 5.04208H1007.43L1089.15 224H1039.45ZM1277.9 155.995C1277.9 169.82 1274.34 182.119 1267.23 192.895C1260.11 203.466 1249.95 211.802 1236.73 217.901C1223.72 224 1207.97 227.05 1189.47 227.05C1171.17 227.05 1155.21 224 1141.59 217.901C1128.17 211.598 1117.6 202.755 1109.87 191.37C1102.15 179.985 1097.67 166.567 1096.45 151.116H1143.42C1144.03 163.314 1148.09 172.971 1155.62 180.086C1163.34 187.202 1174.32 190.76 1188.55 190.76C1196.48 190.76 1203.39 189.642 1209.29 187.405C1215.39 185.169 1220.16 181.916 1223.62 177.647C1227.08 173.377 1228.8 168.396 1228.8 162.704C1228.8 155.792 1226.26 150.302 1221.18 146.236C1216.1 141.967 1208.88 138.917 1199.53 137.088L1163.54 130.074C1155.21 128.651 1147.48 126.313 1140.37 123.06C1133.25 119.807 1127.05 115.741 1121.77 110.862C1116.48 105.982 1112.31 100.086 1109.26 93.1742C1106.21 86.2619 1104.69 78.333 1104.69 69.3877C1104.69 56.3762 1108.14 44.7879 1115.06 34.6227C1122.17 24.4576 1131.83 16.5287 1144.03 10.8362C1156.43 5.14373 1170.56 2.29749 1186.42 2.29749C1202.88 2.29749 1217.52 5.34704 1230.33 11.4462C1243.14 17.5453 1253.51 26.1857 1261.43 37.3673C1269.36 48.3457 1273.73 61.4588 1274.55 76.7066H1227.58C1227.18 68.9811 1225.14 62.272 1221.49 56.5795C1218.03 50.6837 1213.35 46.2111 1207.46 43.1615C1201.56 39.9086 1194.75 38.2822 1187.03 38.2822C1179.5 38.2822 1173.1 39.6037 1167.81 42.2466C1162.73 44.6863 1158.77 48.0408 1155.92 52.3102C1153.07 56.3762 1151.65 61.0522 1151.65 66.3381C1151.65 71.2174 1152.97 75.2835 1155.62 78.5363C1158.46 81.7892 1162.12 84.4321 1166.59 86.4652C1171.07 88.2949 1175.95 89.718 1181.23 90.7345L1218.74 98.3584C1238.05 102.221 1252.69 108.829 1262.65 118.181C1272.82 127.329 1277.9 139.934 1277.9 155.995ZM1403.42 224H1357.07V46.821H1288.15V5.04208H1472.65V46.821H1403.42V224Z"
        fill="black" />
</svg>